<svg id="Layer_1" data-name="Layer 1" xmlns="http://www.w3.org/2000/svg" viewBox="0 0 590.23 543.23"><defs><style>.cls-1{fill:#fdfdfd;}</style></defs><title>attraction</title><path d="M69.44,275a9.07,9.07,0,0,0,.28-1.58q0-27.34,0-54.67a9.67,9.67,0,0,0-.37-1.87,29.12,29.12,0,0,0-3.36-.47c-6.06-.17-12.13-.28-18.19-.42V174.29h5.48l496.12,0c1.2,0,2.41-.05,3.61-.08.11,3.59.31,7.18.33,10.78,0,10.36,0,20.72,0,31.37-4.94,0-9.61-.05-14.29,0-2.1,0-4.19.34-6.29.52h0c-.12,6.74-.32,13.47-.32,20.21,0,7,.18,13.94.28,20.9-.1,1-.28,1.93-.28,2.9q0,92,0,183.9c0,.85,0,1.7,0,2.82H553v21.1h-3.33l-498,0c-1.31,0-2.61-.14-3.92-.22V447.34H69.4a26.76,26.76,0,0,0,.36-3.15q0-82.84,0-165.68C69.73,277.33,69.54,276.15,69.44,275Zm84.25,172.6v-231H112v231ZM237.88,216.5H196.09v231h41.79Zm42.39,0V447.43H322V216.48ZM406.09,447.54v-231H364.39v231Zm84.13,0v-231h-41.7v231Z" transform="translate(-5.63 -10.14)"/><path d="M49.12,115c13.81-5.83,27.63-11.64,41.42-17.51,12.37-5.27,24.69-10.67,37.07-15.92,16.53-7,33.12-13.89,49.66-20.88C191,54.9,204.67,49,218.39,43.22Q257.28,26.8,296.22,10.5a5.72,5.72,0,0,1,4,0Q340.49,27,380.74,43.58,415.92,58,451.13,72.38q40,16.39,79.92,32.82c6.44,2.64,12.91,5.22,19.37,7.83.07,9.41.19,18.82.2,28.24,0,3.49-.2,7-.31,10.46-5.63-2.08-11.28-4.1-16.87-6.26-6.26-2.42-12.43-5.06-18.7-7.46-7.24-2.77-14.56-5.33-21.8-8.1-8.3-3.17-16.55-6.48-24.83-9.68q-18.79-7.26-37.61-14.47T392.87,91.28q-18.65-7.2-37.27-14.45c-11.37-4.44-22.7-9-34.07-13.4Q309.11,58.6,296.61,54a5.16,5.16,0,0,0-3.32.38q-57,23.1-114,46.28-42.95,17.43-85.91,34.82-21.8,8.85-43.56,17.78a3.31,3.31,0,0,0-.76.62,6.13,6.13,0,0,1-.71-1.92q-.07-17.15,0-34.3A9.73,9.73,0,0,1,49.12,115Z" transform="translate(-5.63 -10.14)"/><path d="M6.44,531.7c1,0,2,.08,3,.08H592.07c1,0,2,0,3-.06v20.86H6.44Z" transform="translate(-5.63 -10.14)"/><path d="M26.7,510.57V489.68H570.09c1.31,0,2.63,0,3.94,0v21.07H30.63C29.32,510.7,28,510.61,26.7,510.57Z" transform="translate(-5.63 -10.14)"/><path d="M134.15,152.38H117.78l-.21-.58c4-1.73,8-3.56,12.12-5.19,12.58-5,25.19-10,37.78-15q20.34-8.06,40.68-16.14c11.64-4.65,23.24-9.41,34.88-14.07Q265,92.67,287,84c3.46-1.38,6.85-3,10.39-4.08a8,8,0,0,1,5.06,0C326,89.8,349.6,99.82,373.18,109.77q38.34,16.18,76.7,32.32c9.07,3.83,18.09,7.74,27,12.08-9.77,0-19.54,0-29.31,0-3.27,0-6.55.12-9.82.19-1.18-.11-2.35-.29-3.53-.3q-14.5-.17-29-.29-14.11-5-28.23-9.93c-10.69-3.73-21.41-7.38-32.08-11.16-14.09-5-28.17-10-42.18-15.2a10.91,10.91,0,0,0-7.88.06c-20.69,7-41.43,13.85-62.15,20.75-12.77,4.25-25.51,8.56-38.32,12.67a24.05,24.05,0,0,1-6.76.68c-7.21.15-14.43.19-21.65.27Z" transform="translate(-5.63 -10.14)"/><path class="cls-1" d="M6.44,531.7c0,6.88,0,13.76,0,20.88H595V531.72c.27.55.78,1.09.78,1.65.06,5.91,0,11.83.06,17.74,0,1.74-.71,2.37-2.36,2.25-.87-.06-1.75,0-2.63,0H10.62c-5.55,0-4.94.61-5-4.86,0-4.6-.05-9.2,0-13.8A13.23,13.23,0,0,1,6.44,531.7Z" transform="translate(-5.63 -10.14)"/><path class="cls-1" d="M26.7,510.57c1.31,0,2.62.14,3.93.14H574V489.63a10.71,10.71,0,0,1,.74,2.67c.07,5.36-.07,10.73.08,16.1.07,2.39-.84,3.17-3.06,2.9a16.4,16.4,0,0,0-2,0q-269.39,0-538.78,0A27.33,27.33,0,0,1,26.7,510.57Z" transform="translate(-5.63 -10.14)"/><path class="cls-1" d="M47.74,468.5c1.31.08,2.61.22,3.92.22l498,0H553v-21.1c.27.55.77,1.1.78,1.65.06,5.91,0,11.83.06,17.74,0,1.74-.7,2.37-2.35,2.26-.87-.06-1.75,0-2.63,0q-248.37,0-496.74,0A27.2,27.2,0,0,1,47.74,468.5Z" transform="translate(-5.63 -10.14)"/><path class="cls-1" d="M69.44,275c.1,1.18.29,2.37.29,3.55q0,82.84,0,165.68a26.76,26.76,0,0,1-.36,3.15Q69.42,361.15,69.44,275Z" transform="translate(-5.63 -10.14)"/><path class="cls-1" d="M532.76,216.85c2.1-.18,4.19-.49,6.29-.52,4.67-.08,9.35,0,14.29,0,0-10.65,0-21,0-31.37,0-3.59-.21-7.18-.33-10.78a12.63,12.63,0,0,1,.75,3c.05,12.15,0,24.3.09,36.44,0,2.63-.78,3.39-3.35,3.31C544.59,216.73,538.67,216.85,532.76,216.85Z" transform="translate(-5.63 -10.14)"/><path class="cls-1" d="M49.12,115a9.73,9.73,0,0,0-.8,2.65q-.08,17.15,0,34.3a6.13,6.13,0,0,0,.71,1.92c-.43-.77-1.24-1.53-1.25-2.3-.09-9.19-.06-18.38-.06-27.57,0-2.19-.13-4.39.06-6.56C47.86,116.61,48.65,115.82,49.12,115Z" transform="translate(-5.63 -10.14)"/><path class="cls-1" d="M532.72,258c-.1-7-.29-13.94-.28-20.9,0-6.74.21-13.47.32-20.21Q532.74,237.42,532.72,258Z" transform="translate(-5.63 -10.14)"/><path class="cls-1" d="M550.31,151.73c.11-3.49.32-7,.31-10.46,0-9.41-.13-18.82-.2-28.24a13.66,13.66,0,0,1,.7,3q.08,16.37,0,32.75A11.6,11.6,0,0,1,550.31,151.73Z" transform="translate(-5.63 -10.14)"/><path class="cls-1" d="M405.25,153.76q14.5.14,29,.29c1.18,0,2.35.2,3.53.3-10,0-20.07.05-30.11,0A10,10,0,0,1,405.25,153.76Z" transform="translate(-5.63 -10.14)"/><path class="cls-1" d="M134.15,152.38l31.86-.47a12.32,12.32,0,0,1-2.47.51C153.74,152.43,143.94,152.4,134.15,152.38Z" transform="translate(-5.63 -10.14)"/><path class="cls-1" d="M47.78,216c6.06.13,12.13.24,18.19.42a29.12,29.12,0,0,1,3.36.47c-6.11,0-12.22,0-18.33,0A13.52,13.52,0,0,1,47.78,216Z" transform="translate(-5.63 -10.14)"/></svg>