<?xml version="1.0" encoding="utf-8"?>
<!-- Generator: Adobe Illustrator 21.0.2, SVG Export Plug-In . SVG Version: 6.00 Build 0)  -->
<svg version="1.1" xmlns="http://www.w3.org/2000/svg" xmlns:xlink="http://www.w3.org/1999/xlink" x="0px" y="0px"
	 viewBox="0 0 606 239" style="enable-background:new 0 0 606 239;" xml:space="preserve">
<style type="text/css">
	.st0{display:none;}
	.st1{display:inline;filter:url(#a);}
	.st2{fill:#FFFFFF;}
</style>
<filter  filterUnits="objectBoundingBox" height="200%" id="a" width="200%" x="-50%" y="-50%">
	<feOffset  dx="1" dy="1" in="SourceAlpha" result="shadowOffsetOuter1"></feOffset>
	<feColorMatrix  in="shadowOffsetOuter1" result="shadowMatrixOuter1" values="0 0 0 0 1 0 0 0 0 1 0 0 0 0 1 0 0 0 0.323001585 0">
		</feColorMatrix>
	<feMerge>
		<feMergeNode  in="shadowMatrixOuter1"></feMergeNode>
		<feMergeNode  in="SourceGraphic"></feMergeNode>
	</feMerge>
</filter>
<g id="Layer_1" class="st0">
	<g class="st1">
		<path class="st2" d="M292.6,40.1c4.4,0,10.1-0.6,16.4-1.3c-1.8,6.9-5.4,17-8.5,25.5c-8.2,22.5-12.2,34.4-14.7,43.7
			c3.4,5.5,7.4,8.6,12.5,9.4c2-12.7,5.3-25.5,11.8-45.4c3.4-10.2,9.4-26.5,13.7-35.1c4.9-0.6,9.9-0.9,14.6-0.9
			c2.7,0,6.8,0.2,10.6,0.6c-1.2-6.8-3.2-11.3-8.7-11.3c-3.9,0-29.6,3.1-44.9,3.1c-5,0-9.1-0.3-11-1.2c-0.6,1.1-1,3.1-1,4.3
			C283.3,36.3,286.7,40.1,292.6,40.1L292.6,40.1z M331.9,106.1c0.1,2.4,2.5,7.3,3.5,7.3c0.6,0,1.7-1.1,2.1-2.1
			c6.7-15.8,18.6-32.1,29.2-40.1c1.6-1.2,3.9-2.7,4.4-2.7c0.1,0,0.4,0.3,0.4,0.4c-7.3,14.7-12.7,28.8-12.7,33.2c0,3.5,3,7.1,6,7.1
			c2.4,0,10.9-4,10.9-5.2c0-0.3-0.1-0.7-0.8-1.8c-0.3,0-1.7,0.9-3.9,0.9c-1.5,0-1.8-0.4-1.8-1.9c0-6,11.8-26.9,20.9-37
			c-3.4-4.3-8.3-7.1-12.2-7.1c-6.8,0-17.7,9.3-31.9,27.4c2.7-10.8,6.2-19,11.9-30.2c5.3-10.3,14.6-22.5,25.8-33.9
			c-2.6-2.8-9.4-5.4-14.1-5.4c-10.2,11.6-20.4,28.8-26.4,44.6C336.4,77.2,331.9,95.6,331.9,106.1L331.9,106.1z M426.4,62.8
			c-3.2,6.7-7.7,15.1-10.9,20.4c-8.1,13.4-13.4,19.7-17.8,20.6c-1-0.3-1.6-1.1-1.6-2.7c0-13.8,14.7-33.6,26.7-35.5
			c-0.3-2.8-5.4-8.1-8.4-8.8c-12.1,0.7-28.2,23.5-28.2,40.2c0,7.7,3.8,13.3,9.3,13.6c6.9-1.1,16.8-12.3,22.8-26
			c-2.8,7.3-4.3,13.3-4.3,17.5c0,5.6,2,8.3,6,8.3c2.2,0,5.5-0.9,7.3-2c-2-1.1-2.9-4-2.9-8.2c0-7.6,4.1-20.8,10.2-33.4
			C434.8,65.2,429.5,62.8,426.4,62.8L426.4,62.8z M449.3,65.1c-5.7,13.8-9.9,28.9-9.9,36.2c0,5.3,8.5,11.6,15.9,11.9
			c2.5-0.2,10.5-5.6,12.2-8.2c-0.1-0.4-0.4-1.1-0.8-1.7c-3.1,2.5-7.3,4.3-11.8,4.8c-2.4-0.3-3.7-2.1-3.7-5.5
			c0-9.2,4.5-23.7,11.9-38.1c5.2-0.1,9.7-0.9,13.3-2.2c0-1.2-0.6-2.5-1.2-3.1c-3.1,0.3-6.3,0.4-9.2,0.4c3.7-6.3,6.5-10.6,11-16.2
			c-1.5-1.7-8.6-4-11.6-4c-2.5,1.3-9,11-13.4,19.8c-3-0.1-6.6-0.4-10.5-0.7c0,2,0.8,5.7,1.5,6.6H449.3L449.3,65.1z M490.2,51.2
			c8.6-5.6,13.8-16,16.2-29.5c-1.9-3.7-8.6-6.6-15.7-7.1c1,4.3,1.3,8.2,1.3,11.9c0,8.3-1.9,15.2-3.7,20.4
			C488.4,48.5,489.3,50.4,490.2,51.2L490.2,51.2z M529.9,63.4C529,60,520.4,51.2,517,50.3c-7.8,1.7-14.8,10.3-14.8,18.3
			c0,6.3,3.5,12.8,3.5,20.4c-13,0.9-23.1,10.5-23.1,22c1.2,4.1,6.4,8.4,10.6,8.7c12-1.2,19.3-9.3,19.3-21.7c0-1.8-0.1-2.9-0.1-4
			c0-1.7,0.6-1.9,7.5-3.5c0.2-0.2,0.4-0.9,0.4-1.5s0-0.7-0.1-0.9c-2.4,0-4.7,0.1-7.8,0.2c-0.1-0.2-0.1-0.4-0.1-1.3
			c0-14.3,3.2-22.1,9.2-22.1c1.6,0,2.7,1.6,2.7,3.7c0,1.8-1.8,5.2-1.8,6c0.1,1,0.6,1.6,1.5,1.7C526.2,76.3,529.6,69.1,529.9,63.4
			L529.9,63.4z M492.9,114.5c-1.5-1-2.2-2.4-2.2-4c0-5.2,9.6-14.9,15.5-15.7C506.2,102.5,500.1,111.6,492.9,114.5z M76.6,91.5
			c-0.2-0.9-0.3-1.9-0.3-5c0-17.8,11.9-58.4,20.4-71.9c0.9,25.9,3,46.9,9.2,71.9c1.6,3.1,7.5,4.9,14.3,4.9c0.4,0,1,0,1.5-0.1
			c-0.1-0.1-0.1-0.2-0.1-0.3c0.3-17.9,14.9-76.3,29.1-82.1c-1.7-3.2-6.5-6.8-9.7-7.4C135.3,2.1,124,39,116.9,74.9
			c-4.6-16.1-5.4-31.5-5.4-47.7c0-8.2,0.6-16.1,1.2-19.7c-0.7-2-13.3-6.9-17.5-6.9L96,5.3c-9.9,14-30.2,64.3-30.2,77.8
			C65.8,87.1,68.1,88.9,76.6,91.5z M150.9,86.9c17.9-3.8,30.8-19.8,30.8-38.5c0-7.2-1.9-10.5-5.9-10.5c-0.7,0-1.3,0.1-2,0.1
			c-2.2-3.9-4.7-6.7-7.1-8c-3.5,0-7.5,1.6-11.5,4.6c-10.5,7.7-18.3,22.2-18.3,34.2C136.9,78.9,142.4,86,150.9,86.9z M156.6,51.6
			c3.7-4.8,9-9.6,15.5-11.5c1,1.6,1.5,3.7,1.5,7.5c0,17.5-9.7,31.8-23.1,34.7c-1.5-0.4-2.9-4.4-2.9-8
			C147.5,68.4,151.4,58.5,156.6,51.6L156.6,51.6z M185.9,78.4c0,4.4,1.9,7.4,6.6,8.8c4.7-6.4,6.8-10.3,12.5-17.9
			c2.8-3.6,8.7-11,11.1-12.1c-0.2,2.5-0.7,4.4-2.4,11c-0.9,3.6-1.2,6.4-1.2,10.8c0,4.1,2.5,7.2,5.9,7.2c3.1,0,11.6-9.3,17.2-15.3
			c13.8-14.8,20-23.6,21.5-40.2c-0.4-0.3-1.3-0.6-2.5-0.6c-2.6,0-6.3,0.9-7.2,2.1c-2.8,14.7-4.1,20.2-9.9,28.9
			c-4.6,7.1-12.2,15.8-13.6,16.4c2-10.8,5.4-33.8,10.2-40c-0.3-1.8-4.7-2.5-7.6-2.5c-0.8,0-1.5,0-1.9,0.1c-2.9,2.9-3.9,6.9-4.8,9.6
			c-1.2,3.5-2.1,5.8-6.8,10.2c-3.4,3.1-8,8.7-12.9,15.2C202,59,203,43.8,211.8,36.7c-0.6-1.7-4.5-2.8-7.7-2.8c-6,0-10.3,4-12.2,11
			C188.9,55.4,185.9,72.5,185.9,78.4z"/>
		<path class="st2" d="M2.6,211.5c6.4,13.6,19.5,21,37.4,21c39,0,73.1-38.2,73.1-80.9c0-31.3-24.8-52.6-59.7-52.6
			c-27.7,0-48.5,13.4-52.8,33.6c1.3,6.7,6.1,11.5,11,13.1c5.1-17.4,15.3-29.2,28.9-34.8C35.8,126.4,12.2,189.5,2.6,211.5L2.6,211.5z
			 M60.4,107.2c23.8,0,38.9,13.1,38.9,35.6c0,40.3-29.7,75.4-65.3,75.4c-5.1,0-9.7-0.5-12.6-1.5c0-6.2,5.2-21.6,17.7-49.4
			c9.8-21.8,20.8-43.1,24.3-47.9c-2.3-2.1-9-6.6-18.5-10C49.6,108,54.9,107.2,60.4,107.2z M172.2,152.1c-4.4-5.6-9.2-8.7-14.1-9.3
			c-21.6,0-46.2,31.7-46.2,58.5c0,13.1,8.9,23.5,23.9,25.1c10.3-2.3,23-11.6,32.8-24.6c-0.8-1-1.6-1.8-2.8-2.8
			c-6.9,7.4-18.2,19.2-30,19.2c-6.2,0-7.5-7.5-7.5-13.1c0-1.5,0.2-3,0.2-4.3C156.3,189.7,170.6,179,172.2,152.1z M160.9,157.5
			c-0.8,14.9-13.8,28.4-31.2,37.1C135,174.2,148.9,159.2,160.9,157.5z M172.9,210.7c0,6.3,1.3,11.8,3.1,13c1.3,0.9,3.5,3.2,3.9,4.2
			c0.6,1.3,2.8,2.5,5.4,2.8c-0.1-0.7-0.1-0.9-0.1-4.2c0-12.3,4.4-31.2,12.6-54c9.6-26.7,20.6-46.4,35.8-64.4
			c-1.6-2.5-11.7-8.3-16.4-9.2c-10.1,12.3-20.6,34-32.6,66.7C177.1,186,172.9,202.2,172.9,210.7z M207.1,207.5
			c0,11,11.7,15.8,13.6,15.8c1.1,0,1.1-1.7,1.1-6.1c0.2-5.4,3-13.4,5.6-20.3c6.3-16.4,9.7-29.6,21-42.2
			c-4.8-7.3-13.2-11.3-17.3-12.3c-11.2,5.6-16.6,24.9-17.7,29.8C208.6,194.5,207.1,203.3,207.1,207.5L207.1,207.5z M242.6,126.8
			c0,2,2.6,4.5,5.6,5c1.9-4.1,15.4-20.6,21-25.9c-3.7-5.6-16.7-13-22.5-13c-3.2,8-5.8,20.1-5.8,24.4c0,2,0.9,4.8,2.2,6.1
			C242.8,125,242.6,126.1,242.6,126.8L242.6,126.8z M243.6,191.1c0,17.2,11.6,32.3,26.1,33.6c7.4-1.3,20.8-10.7,28-19.7
			c0-1-0.8-2.6-1.6-3.3c-10.2,7.5-22,13.3-28.4,14.1c-3.9-1.8-5.9-7.1-5.9-15.9c0-13.9,5.1-27.1,14.4-37.6
			c6.1-6.7,13.4-11.3,17.7-11.3c2.5,0,3.8,1.6,3.8,4.8c0,5.4-3.6,11.5-11,18.2c1.8,2.6,4.8,4.4,7.4,4.4c6.2,0,12.5-9.8,12.5-19.8
			c0-10.5-6.4-16.4-17.7-16.4C266,142.3,243.6,166.4,243.6,191.1L243.6,191.1z M306.7,209c0,9.7,10.3,13.9,12,13.9c1,0,1-1.5,1-5.4
			c0.2-4.8,2.6-11.8,4.9-17.9c5.6-14.4,8.5-26.1,18.5-37.2c-4.3-6.4-11.6-10-15.3-10.8c-9.8,4.9-14.6,22-15.6,26.2
			C308,197.5,306.7,205.2,306.7,209L306.7,209z M338,137.8c0,1.8,2.3,3.9,4.9,4.4c1.6-3.6,13.6-18.2,18.5-22.8
			c-3.3-4.9-14.8-11.5-19.8-11.5c-2.8,7.1-5.1,17.7-5.1,21.5c0,1.8,0.8,4.3,2,5.4C338.2,136.2,338,137.2,338,137.8L338,137.8z
			 M359.6,225.7c26.2-5.6,45.1-29,45.1-56.4c0-10.5-2.8-15.4-8.7-15.4c-1,0-2,0.2-3,0.2c-3.3-5.7-6.9-9.8-10.3-11.6
			c-5.1,0-11,2.3-16.9,6.7c-15.4,11.3-26.7,32.5-26.7,50C339.1,213.9,347.1,224.4,359.6,225.7L359.6,225.7z M368,174.1
			c5.4-7.1,13.1-14.1,22.6-16.9c1.5,2.3,2.1,5.4,2.1,11c0,25.6-14.3,46.6-33.8,50.8c-2.1-0.7-4.3-6.4-4.3-11.6
			C354.7,198.7,360.4,184.1,368,174.1L368,174.1z M452.2,216.4c5.1,3.4,12.6,6.4,15.6,6.4c0,0,0.7-0.2,0.7-0.7
			c0-2.1-3.6-5.7-3.6-15.1c0-17.2,12.6-35.6,20.7-54.8c-2-2.5-9.8-5.2-15.6-5.2c-7.4,7.1-10.8,16.6-12.8,22
			c-3.6,9.7-11.6,19.7-16.1,25.7c-9,12.3-13.4,17.7-16.7,19c-0.3-0.3-1.1-1.3-1.1-3c0-5.7,4.8-20.7,6.9-25.6
			c9.8-23.3,18.9-35.8,20.8-37.9c-3.3-3.8-10.8-5.1-14.6-5.1c-13.8,10-25.4,37.7-29.4,54.3c-1,4.6-1.3,7.9-1.3,13.9
			c1.8,7.7,11,12.5,17.9,12.8c1.5-0.2,4.3-2.1,7.1-5.1c3.6-4.3,15.4-21.2,17.2-21c-0.5,1.5-0.8,3.4-0.8,5.9
			C446.9,206.9,448.1,212.9,452.2,216.4L452.2,216.4z M540.2,154.7c-1.3-5.1-13.9-17.9-18.9-19.2c-11.5,2.5-21.6,15.1-21.6,26.7
			c0,9.2,5.1,18.7,5.1,29.8c-19,1.3-33.8,15.4-33.8,32.1c1.8,6.1,9.3,12.3,15.6,12.8c17.5-1.8,28.2-13.6,28.2-31.8
			c0-2.6-0.2-4.3-0.2-5.9c0-2.5,0.8-2.8,11-5.1c0.3-0.3,0.7-1.3,0.7-2.1s0-1-0.2-1.3c-3.4,0-6.9,0.2-11.5,0.3
			c-0.2-0.3-0.2-0.7-0.2-2c0-21,4.8-32.3,13.4-32.3c2.3,0,3.9,2.3,3.9,5.4c0,2.6-2.6,7.5-2.6,8.9c0.2,1.5,0.8,2.3,2.1,2.5
			C534.8,173.6,539.7,163.1,540.2,154.7z M486,229.5c-2.1-1.5-3.3-3.4-3.3-5.9c0-7.5,14.1-21.8,22.6-23
			C505.4,212,496.5,225.2,486,229.5z M542.9,189.2c0,9.7,4.6,11.3,10,12.8c7.1-39.5,29.4-76.9,51.8-95.4c-1-5.4-11.3-14.8-18.2-16.2
			C573.7,99.6,542.9,171.1,542.9,189.2z M539.3,232.6c6.6,0,8.9-10,13.9-15.6c-3-5.2-10.2-10.3-16.2-10.3c-4.9,0-7.7,12.6-7.7,18
			C529.3,227.1,534.2,232.6,539.3,232.6L539.3,232.6z"/>
	</g>
</g>
<g id="Layer_2">
	<g>
		<path class="st2" d="M75.9,57.6c0.4,0,0.7,0.1,1.2,0.2c0.4,0.1,0.6,0.5,0.6,1.1c0,0.4-0.1,0.8-0.3,1.3c-0.2,0.5-0.4,0.8-0.6,1.1
			c0.1,0.6,0.2,1.1,0.3,1.6c0.1,0.5,0.1,1,0.1,1.6c0,0.8-0.3,1.5-0.9,2c-0.4,0.2-0.8,0.5-1.4,0.6c-0.6,0.2-1.1,0.4-1.6,0.6
			c-1.3,0.6-2.7,1.2-4.1,1.9c-1.4,0.7-2.7,1.4-4,2.3c-0.7,0.5-1.3,1.1-1.6,1.8c-0.4,0.7-0.7,1.4-0.9,2.2c-1.1,3.4-2,6.7-2.9,10.1
			c-0.8,3.4-1.7,6.8-2.5,10.3c-0.4,1.7-0.8,3.3-1.2,4.9c-0.4,1.6-0.8,3.2-1.2,4.9c-1.7,8.3-3,16.6-4,25c-1,8.4-2.2,16.7-3.5,25
			c-0.4,2.2-0.7,4.7-1,7.6c-0.3,2.9-0.9,5.3-1.9,7.4c-0.2,0.6-0.5,1.1-0.9,1.4s-0.8,0.8-1.3,1.3c0,1.1,0.1,2.2,0.2,3.3
			c0.1,1.1,0.2,2.3,0.2,3.3c0,0.4,0,0.8-0.1,1.2c-0.1,0.4-0.1,0.8-0.1,1.2l-1.3,1.3c-0.4-0.7-0.6-1.5-0.8-2.3
			c-0.2-0.8-0.4-1.5-0.6-2.3c-0.7,0.2-1.5,0.4-2.3,0.4c-0.8,0.1-1.5,0.2-2.3,0.5c-0.6-2-0.9-4-0.9-5.8c0-1.3,0.1-2.7,0.3-4
			c0.2-1.4,0.4-2.7,0.6-4.1c0.2-1.6,0.4-3.1,0.4-4.6c0-1.5,0.2-3,0.5-4.6c0.7-3.4,1.2-6.7,1.4-10c0.2-3.3,0.6-6.6,1.2-10
			c0.8-5.5,1.8-10.9,3-16.3c1.1-5.3,2.4-10.7,3.7-16.1c1-4,2.1-7.9,3.3-11.8c1.3-3.9,2.3-7.8,3.2-11.8c-0.5-0.5-0.9-0.9-1.4-1.3
			c-0.4-0.4-0.8-0.8-1.2-1.4l-0.9,0.4c-0.1,0-0.3,0.1-0.6,0.2c-0.3,0.1-0.5,0.2-0.6,0.2c-0.4-0.1-0.8-0.2-1.4-0.2
			c-1.1,0-2.1,0.3-3.1,1c-1,0.7-2.1,1.1-3.2,1.4c-0.6-0.5-1.4-1.2-2.3-2.3c-1-1-1.4-1.9-1.4-2.6c0-0.7,0.5-1.3,1.4-1.7
			c0.9-0.4,1.6-0.7,2.3-1l0.2-2.2c2.9-2.2,6.4-3.8,10.6-5c4.2-1.1,8-2.5,11.5-4c0.7-0.4,1.7-0.8,3.1-1.4c1.3-0.5,2.7-1.1,4.1-1.6
			s2.8-1,4.1-1.4C74.1,57.9,75.1,57.6,75.9,57.6z"/>
		<path class="st2" d="M117.6,57.5c0.8,0,1.6,0.2,2.3,0.6c0.7,0.4,1.4,0.8,2.1,1c0.5,0.8,0.7,2,0.6,3.4c-0.1,1.4,0.2,2.5,0.8,3.1
			c0,0.6,0,1.1,0,1.6c0,0.5,0.1,1,0.2,1.6c-0.4-0.4-0.7-0.8-0.9-1.4c-0.2-0.6-0.5-1.3-0.6-2c-0.2-0.7-0.4-1.4-0.5-2.1
			c-0.2-0.7-0.5-1.2-0.8-1.7c0.1,0.6,0.3,1.2,0.5,1.9c0.2,0.7,0.4,1.3,0.6,1.9c0.2,0.2,0.4,0.6,0.5,1c0.1,0.4,0.2,0.9,0.4,1.4
			c0.1,0.5,0.3,0.9,0.5,1.3c0.2,0.4,0.4,0.5,0.6,0.4l1.3,1.4c-0.1,0.8-0.2,1.6-0.4,2.3c-0.1,0.7-0.3,1.5-0.5,2.3
			c-0.4,1.1-0.5,2.2-0.5,3.2c0,1.1,0,2.2,0,3.4c0,3.1-0.4,6.8-1.3,10.9c-0.8,4.1-1.6,7.8-2.2,10.9c-0.5,2.6-1.1,5.2-1.7,7.7
			c-0.7,2.5-1.1,5.2-1.4,7.9c-0.2,1.6-0.6,3.1-1,4.6c-0.4,1.5-0.8,3-1,4.6c-0.2,1.9-0.4,3.8-0.6,5.7c-0.2,1.9-0.6,3.8-1.4,5.7
			c-0.6,1.7-1.2,3.3-1.7,4.9c-0.5,1.6-1.1,3.3-1.7,5c-1,2.8-2.1,5.4-3.4,8c-1.3,2.6-2.6,5.3-4,8l0.5,1.3c-1,0.7-1.6,1.7-2,3
			c-0.4,1.3-1,2.3-2,3l-0.4,1.6c-1.1,1.1-2.1,2.2-3.1,3.4c-1,1.2-1.9,2.5-2.6,4c-1.1,0.6-2.3,1-3.8,1.3c-1.4,0.2-2.8,0.4-4,0.4
			c-2,0-3.8-0.8-5.2-2.3c-1.4-1.6-2.6-3.4-3.5-5.7c-0.9-2.2-1.6-4.5-2-6.8c-0.4-2.3-0.6-4.3-0.6-5.9c-0.1-2.5-0.2-5-0.2-7.5
			c0-2.5-0.1-5-0.2-7.5c-0.1-1.2-0.3-2.4-0.5-3.6c-0.2-1.2-0.3-2.4-0.3-3.6c0-3.1,0.1-6.2,0.3-9.4c0.2-3.1,0.5-6.2,1-9.4
			c0.4-2.5,1-5.8,1.9-9.8c0.9-4,2-8.2,3.2-12.5c1.3-4.3,2.6-8.4,4-12.3c1.4-3.9,2.7-6.9,4-9.1c0.8-1.3,1.6-2.8,2.2-4.3
			c0.6-1.6,1.7-2.6,3.2-3.2c0.4,0.6,0.8,1,1.3,1.1c1.3-2.2,2.9-3.8,4.7-4.9c1.8-1.1,3.7-2.3,5.8-3.6c0.6-0.5,1.1-1,1.4-1.5
			c0.4-0.5,0.8-1.1,1.3-1.7c1.3-0.5,3.1-1.1,5.5-1.8C114.6,57.8,116.4,57.5,117.6,57.5z M101.4,78.9c-0.2,0.1-0.7,0.5-1.3,1.1
			c-0.4,1-0.9,1.7-1.7,2.3c-0.8,0.6-1.6,1.2-2.3,1.7c-0.8,0.5-1.6,1.1-2.3,1.7c-0.8,0.6-1.3,1.4-1.7,2.3c-1.2,2.9-2.5,5.8-3.8,8.7
			c-1.3,2.9-2.3,5.9-2.9,8.9c-0.2,1-0.4,1.9-0.4,2.8c0,0.9-0.1,1.8-0.4,2.8c-0.1,0.6-0.3,1.2-0.5,1.9c-0.2,0.7-0.5,1.3-0.7,1.9
			c-0.6,1.8-1.1,3.7-1.4,5.7c-0.3,2-0.5,3.9-0.5,5.8c0,1,0.1,2,0.2,3.1c0.1,1.1,0.3,2.1,0.5,3.1c1-1,1.7-1.6,2.2-2
			c-0.1-0.6-0.2-1.2-0.3-1.8c-0.1-0.6-0.1-1.2-0.1-1.8c0-0.2,0-0.6,0.1-1c0.1-0.4,0.2-0.6,0.5-0.6c0.6,0,1,0.7,1.4,2
			c0.3,1.3,0.4,2.2,0.4,2.7c0,1.2-0.3,2.3-0.9,3.2c-0.6-0.2-1.5-0.5-2.7-0.7c0.2,0.2,0.5,0.5,0.7,0.7c0.2,0.2,0.5,0.5,0.7,0.7
			l-0.2,1.1l1.8-0.2c-0.7,1.6-1.4,3-2.1,4.4c-0.7,1.4-1,2.9-1,4.6c0,1.9-0.1,3.8-0.4,5.8c-0.2,1.9-0.4,3.8-0.4,5.8
			c0,1.7,0.2,3.4,0.5,5.2c0.2,1.4,0.4,3,0.5,4.7c0.1,1.7,0.8,3,2.3,4c0.6-0.6,1.2-1.2,1.7-1.8c0.5-0.6,0.9-1.3,1.2-2.2
			c0.7-0.8,1.7-2,2.9-3.4c1.2-1.4,2.3-2.9,3.4-4.4c1.1-1.5,2.1-3,3-4.6c0.9-1.6,1.5-2.9,1.7-4c0.5-0.7,1.1-2.1,2-4.1
			c0.8-2,1.6-4.1,2.4-6.4c0.8-2.3,1.4-4.4,2-6.5c0.5-2,0.8-3.5,0.8-4.5c0.4-0.6,0.8-2.2,1.4-4.7c0.5-2.5,1.1-5.3,1.6-8.3
			c0.5-3,1-5.8,1.4-8.5c0.4-2.6,0.5-4.4,0.5-5.2c0-1,0.2-1.9,0.5-2.7c0.4-0.8,0.5-1.7,0.5-2.7c0-0.7-0.2-1.4-0.5-2.2l1.1-0.7
			c0-0.2,0-0.5-0.1-0.8c-0.1-0.3-0.1-0.6-0.1-0.8c0-1,0.2-1.9,0.5-2.9V76.9c0-1.2-0.2-2.2-0.5-3c-0.3-0.8-1.2-1.2-2.6-1.2
			c-1.2,0-2.4,0.3-3.5,1c-1.1,0.7-2.2,1.3-3.1,1.9C102.3,76.2,101.5,77.3,101.4,78.9z M85.4,177.3v0.2c0,1,0.4,1.4,1.3,1.4h0.2
			c0.1,0,0.2,0,0.2-0.1c0-0.1,0.1-0.1,0.2-0.1v-0.2c0-1-0.4-1.4-1.3-1.4c0,0.1-0.1,0.2-0.2,0.2H85.4z M112.4,68.6
			c0,0.1,0,0.2-0.1,0.2c-0.1,0-0.1,0.1-0.1,0.2v0.2c0,0.4,0.2,0.5,0.7,0.5h0.5v-0.5c0-0.5-0.2-0.7-0.5-0.7c0,0.1-0.1,0.2-0.2,0.2
			H112.4z"/>
		<path class="st2" d="M147.3,56.7c0.2,0,0.6,0.1,1.1,0.4c0.7,1,1.2,2.2,1.3,3.7c0.2,1.5,0.3,2.8,0.3,3.9c0,1-0.2,1.9-0.6,2.8
			c-0.4,0.9-1.2,1.2-2.4,1c-1.3,4.2-2.6,8.5-3.8,12.8c-1.2,4.3-2.1,8.8-2.7,13.3c-0.4,2.6-0.8,5.2-1.4,7.6c-0.6,2.5-1.1,5-1.6,7.5
			c-1.3,7.7-2.5,15.2-3.6,22.7c-1.1,7.4-1.6,15.1-1.6,22.9c0,2,0.2,3.8,0.5,5.2s0.8,2.8,1.3,4c0.5,1.2,1,2.4,1.5,3.7s1,2.8,1.5,4.6
			c1.9-1,3.4-2.4,4.3-4.3c1-1.9,1.9-3.7,2.9-5.4c2.2-4,3.9-8.1,5.1-12.5c1.3-4.4,2.5-8.8,3.7-13.2c2.5-9.5,4.6-19,6.4-28.7
			c1.7-9.7,3.9-19.2,6.6-28.7c0.4-1.3,0.8-2.5,1.4-3.6c0.6-1.1,1.1-2.2,1.4-3.4c0.4-1,0.6-2.1,0.6-3.3c0.1-1.3,0.7-2.1,2.1-2.4
			l1.1,2c-0.4-0.6-0.7-1.3-1-2.2c-0.3-0.8-0.4-1.7-0.4-2.5c0-1.3,0.7-2,2-2h0.4c1.1,0.6,1.8,1.4,2.2,2.5s0.5,2.2,0.5,3.2
			c0,2.6-0.4,5.6-1.3,8.8c-0.8,3.2-1.6,6.2-2.2,8.8c-2.2,10.4-4.2,20.8-6.1,31c-1.9,10.3-4.3,20.6-7,30.9c-1.2,4.6-2.7,9.1-4.4,13.6
			c-1.7,4.5-3.6,9-5.5,13.4c-0.7,1.7-1.8,3.3-3.2,4.9c-1.4,1.6-2.9,2.9-4.4,4c-1.2,1-2.3,1.4-3.2,1.4c-1,0-2.1,0-3.4,0
			c-1-0.5-1.8-1.1-2.4-2c-0.7-0.8-1.2-1.7-1.7-2.7c-1-1.9-2-3.8-3.1-5.7c-1.1-1.9-1.9-3.8-2.3-5.8c-0.6-2.9-1-5.8-1.1-8.7
			c-0.1-2.9-0.2-5.9-0.2-8.9c0-5.9,0.3-11.7,0.9-17.4c0.6-5.7,1.2-11.4,1.8-17.2c0.8-7.3,1.9-15,3.3-23.1c1.4-8.1,3.3-15.6,5.7-22.6
			c0.1-0.4,0.4-1.1,0.7-2.3c0.4-1.1,0.8-2.3,1.3-3.5c0.5-1.2,1-2.3,1.5-3.2c0.5-1,1-1.4,1.5-1.4c0.5,0,1,0.2,1.5,0.6
			c0.5,0.4,1,0.8,1.3,1c0.2-0.7,0.5-1.8,0.9-3.1C145.7,57.4,146.4,56.7,147.3,56.7z M139.6,175.4c0.6,0,1.1,0,1.4-0.1
			c0.4-0.1,0.7-0.4,1.1-1c0.7-1.3,1.4-2.6,2.2-3.9c0.7-1.3,1.4-2.5,2-3.9c-1.1,1.4-2.2,2.9-3.2,4.4
			C141.9,172.5,140.8,173.9,139.6,175.4z"/>
		<path class="st2" d="M210.3,63.2c0.5,0,0.9,0,1.3,0.1c0.4,0.1,0.8,0.2,1.3,0.3c-0.5,0.6-1.2,0.8-2.3,0.7c-1-0.1-1.9-0.1-2.6,0.2
			h1.4c1.1,0,2.1,0,3.1,0c1,0,2-0.2,3-0.5c2.2,1,4.1,2.1,5.7,3.5c1.6,1.4,2.4,3.4,2.4,6c0,0.6-0.1,1.4-0.3,2.4
			c-0.2,1-0.4,2.1-0.6,3.2c-0.2,1.1-0.5,2.3-0.7,3.3c-0.2,1.1-0.5,1.9-0.7,2.3c-2.6,6.5-5.9,12.3-9.9,17.4c-4,5.1-8.6,9.9-14,14.3
			c0.4,2.3,0.6,4.5,0.8,6.8c0.2,2.2,0.6,4.4,1.2,6.6c0.6,2.2,1.3,4.2,2.2,6.1c0.8,1.9,1.7,3.9,2.7,5.9c1.2,2.6,2.2,5.3,3.1,7.8
			c0.8,2.6,1.7,5.3,2.7,8c0.5,1.3,1,2.6,1.5,3.8c0.5,1.2,1.1,2.5,1.7,3.8c0.6,1.1,1.3,2.1,2.1,3.1c0.8,1,1.2,2.1,1.2,3.4v0.7
			c-0.2,0.1-0.5,0.2-0.9,0.2c-0.8,0-1.5-0.4-2-1.2c-0.5-0.8-1-1.5-1.4-2.1l-2.2,0.7c0.2,0.5,0.4,0.9,0.6,1.3
			c0.2,0.4,0.3,0.9,0.3,1.5c0,0.6-0.3,1.2-0.9,1.8c-0.4-0.4-1-0.8-2-1.3c-1.7-2.6-3.1-5.3-4.2-8.1c-1.1-2.8-2.3-5.6-3.5-8.5
			c-1.9-4.8-4.1-9.8-6.7-15.1c-2.5-5.3-4.1-10.4-4.7-15.5h-0.5c-1.2,7.9-2.6,15.8-4.1,23.7c-1.5,7.9-2.4,15.9-2.6,24
			c-0.1,2.4-0.3,4.7-0.5,7c-0.2,2.3-1,4.4-2.3,6.5l-2.2-0.7c-0.2-1.8-0.2-3.7,0-5.6c-0.4,0.6-0.8,1.2-1.4,1.7
			c-0.6,0.5-1.2,0.8-1.9,0.8c-0.4,0-0.7-0.1-0.9-0.2c0-0.4,0-0.7-0.1-1.1c-0.1-0.4-0.1-0.7-0.1-1.1c0-1.2,0.2-2.5,0.5-3.8
			c-0.1-0.7-0.2-1.4-0.3-2.2c-0.1-0.7-0.1-1.5-0.1-2.3c0-1,0.1-1.9,0.2-2.9c0.1-1,0.2-1.9,0.4-2.9c0.2-2.8,0.5-5.5,0.8-8.3
			c0.3-2.8,0.6-5.5,1-8.3c1-6.7,2-13.4,2.9-20c1-6.6,2-13.3,3-20c0.6-4.2,1.3-8.4,2.1-12.6c0.8-4.2,1.8-8.3,3.1-12.4
			c0.7-2,1.1-4,1.3-6c0.1-2,0.7-3.9,1.8-5.9c0.5-0.7,0.8-1.4,0.9-1.9c0.1-0.5,0.2-1,0.4-1.5c0.1-0.5,0.3-1,0.5-1.6
			c0.2-0.6,0.7-1.3,1.4-2c0.2-0.4,0.5-0.7,0.7-1c0.2-0.3,0.6-0.5,1.1-0.6l1.8,1.3c1.4-1.4,2.6-2.1,3.6-2.1c1,0.1,2.3,0,4.1-0.3
			c1.1-0.2,2.2-0.5,3.2-0.7C208,63.3,209.1,63.2,210.3,63.2z M193.9,111.3c-0.6,0.4-1.2,0.7-1.9,1.1c-0.7,0.4-1.1,1-1.4,1.8
			C192.1,113.6,193.2,112.6,193.9,111.3z M191.1,110c1.2-0.8,2.4-1.9,3.6-3.1c4.2-4.2,8.1-8.6,11.8-13.2c3.7-4.6,6.5-9.7,8.5-15.4
			c-0.1-0.8-0.4-1.6-0.8-2.3c-0.4-0.7-0.8-1.4-1.2-2.2c0.1,0,0.2,0,0.4-0.1c0.1-0.1,0.2-0.1,0.4-0.1c1,0,1.9,0.5,2.7,1.6v-2.2
			c-0.5,0-1,0-1.4,0.1c-0.5,0.1-1,0.1-1.4,0.1c-1.4,0-2.7-0.4-3.8-1.1c-1.1-0.7-2.3-1.1-3.6-1.1c-1.4,0-2.9,0.4-4.4,1.1
			c-1.5,0.7-2.9,1.4-4.2,2c-1.1,0.5-1.7,1.1-1.7,1.9c-0.1,0.8-0.2,1.7-0.3,2.6c-0.2,2.3-0.6,4.5-1,6.7c-0.4,2.2-0.8,4.4-1,6.7
			c-0.4,3-0.9,6-1.5,8.9C191.4,103.9,191.1,106.9,191.1,110z"/>
		<path class="st2" d="M242,64.7c0.2-1,0.6-1.9,1.2-2.7c0.5-0.8,1.3-1.4,2.3-1.6c0.8,1.2,1.4,3,1.7,5.4c0.3,2.4,0.4,4.3,0.4,5.8
			c0,0.4,0,0.7-0.1,1c-0.1,0.3-0.1,0.6-0.1,1c-0.5,5.3-0.9,10.5-1.4,15.7c-0.4,5.2-1.1,10.3-1.9,15.5c-1.1,6.8-2.3,13.6-3.5,20.2
			c-1.3,6.6-2.5,13.3-3.7,20.2c-0.5,2.8-0.9,5.6-1.2,8.4c-0.3,2.8-0.8,5.6-1.3,8.4c-0.2,1.3-0.5,2.6-0.9,3.7
			c-0.4,1.1-0.7,2.3-0.9,3.5c-0.4,1.8-0.6,3.6-0.8,5.5c-0.2,1.9-0.6,3.6-1.3,5.3c-0.2,0.8-0.8,1.6-1.8,2.3l-1.4-1.6
			c-0.2,0.5-0.6,1.3-1.2,2.5s-1.1,1.8-1.7,1.8c-0.8,0-1.4-0.3-1.5-1c-0.2-0.7-0.3-1.3-0.3-1.9c0-2.4,0.1-4.8,0.2-7.1
			c0.1-2.3,0.4-4.7,0.9-7.1c1.1-6.5,2.1-12.8,3.1-19.1c1-6.2,2.1-12.6,3.2-19.1c0.4-2.2,0.7-4.3,1.2-6.5c0.4-2.2,0.7-4.3,1-6.5
			c0.2,0.6,0.4,1.2,0.5,1.7c0.1,0.5,0.1,1.1,0.3,1.7c0-0.4,0-0.7,0.1-0.9c0.1-0.2,0.1-0.5,0.1-0.9c0-0.7-0.2-1.3-0.5-1.6
			c0.7-5.4,1.6-10.7,2.5-15.8c1-5.2,1.9-10.4,2.7-15.8c0.2-1.8,0.5-3.6,0.7-5.5c0.2-1.9,0.5-3.7,0.7-5.5c0.1-1,0.1-1.9,0.1-2.8
			c-0.1-0.9,0-1.8,0.3-2.8c0.2-1,0.6-1.6,1-2.1C240.9,65.8,241.4,65.3,242,64.7z"/>
		<path class="st2" d="M298.7,58.2c0.5,0.2,1.1,0.7,1.8,1.4c0.7-0.2,1.4-0.4,2.2-0.5c0.7-0.1,1.4-0.2,2.2-0.4
			c0.4,0.4,0.6,0.8,0.8,1.3c0.2,0.5,0.4,1,0.6,1.4c-0.2,0.5-0.4,1-0.5,1.4c-0.1,0.5-0.4,0.9-0.7,1.3c-0.6,0.8-1.6,1.6-3.1,2.3
			c-1.4,0.7-2.7,1-3.8,1c-1.2,0-2.1-0.2-2.7-0.7l0.9,1.6c-0.6,0.1-1.1,0.2-1.5,0.3c-0.4,0.1-0.9,0.1-1.5,0.1c-0.5,0-0.9-0.2-1.3-0.7
			c-0.4-0.5-0.9-0.7-1.5-0.7c-0.5,0-1,0.2-1.5,0.7c-0.5,0.5-0.8,1-0.8,1.4l-1.3-0.4c-0.6,0.5-1.2,0.9-1.8,1.3
			c-0.6,0.4-1.2,0.7-1.8,1.1c-1.1,0.6-2.3,1.1-3.5,1.4c-1.3,0.3-2.3,0.9-3.2,1.9c-0.6,0.7-0.9,1.5-1,2.3c-0.1,0.8-0.1,1.6-0.1,2.4
			c-0.2,5.8-0.9,11.4-2.1,16.9c-1.1,5.5-2,11.2-2.6,16.9c4.6-1.3,9.1-2.4,13.8-3.2c4.6-0.8,9.2-1.9,13.8-3.1c0.1,0,0.2,0,0.3-0.1
			c0.1-0.1,0.1-0.1,0.3-0.1c0.2,0,0.8,0.5,1.6,1.4c0.8,1,1.3,1.6,1.4,2c-0.5,0.6-1.2,1.1-2.1,1.4s-1.8,1.5-2.6,3.4
			c-1.7,0.8-3.8,1.5-6.2,2c-2.5,0.5-4.9,1-7.4,1.6c-2.5,0.6-4.8,1.3-7,2.1c-2.2,0.8-3.9,1.8-5,3.2c-0.4-0.2-0.7-0.4-1-0.5
			c-0.3-0.1-0.6-0.3-1-0.5c-0.8,1.4-1.4,3-1.6,4.7c-0.2,1.7-0.5,3.4-0.7,5c-1.1,5.9-2.2,11.8-3.2,17.6c-1.1,5.9-2.2,11.8-3.2,17.6
			c-0.4,2-0.6,4.2-0.7,6.4c-0.1,2.2-0.5,4.4-1.1,6.4c0,0.1,0,0.2-0.1,0.3c-0.1,0.1-0.1,0.2-0.1,0.5c0,0.4,0.1,0.7,0.3,1.1
			c0.2,0.4,0.3,0.8,0.3,1.3c0,0.2-0.1,0.5-0.4,0.9c-0.2,0.4-0.5,0.5-0.9,0.5s-0.6-0.3-0.7-1c-0.1-0.7-0.2-1.1-0.2-1.3
			c-0.2,0.4-0.5,1-0.6,1.9c-0.2,0.9-0.4,1.8-0.7,2.7c-0.3,0.9-0.6,1.7-1,2.4c-0.4,0.7-0.7,1.1-1.1,1.1c-0.8,0-1.3-0.4-1.3-1.1
			c0-2,0.1-4,0.5-5.9c0.3-1.9,0.4-3.9,0.4-5.9c0-0.6,0-1.1,0-1.6c0-0.5-0.1-1-0.2-1.6c0,0.5-0.1,1.2-0.4,2.2c-0.2,1-0.5,2-0.9,3
			c-0.4,1-0.8,1.9-1.3,2.7c-0.5,0.8-1,1.2-1.6,1.2c-0.6,0-1-0.3-1.1-0.9c-0.1-0.6-0.2-1.1-0.2-1.4c0-0.7,0.1-1.6,0.2-2.8
			c0.1-1.1,0.3-2.3,0.5-3.5c0.2-1.2,0.4-2.4,0.5-3.5c0.2-1.1,0.3-2.1,0.4-3c0.7-5.3,1.5-10.5,2.3-15.7c0.8-5.2,1.8-10.3,2.9-15.5
			c0.7-3.4,1.2-6.7,1.5-10.1c0.3-3.4,0.7-6.7,1.2-10.1c1-7.4,2-14.7,3.1-21.7s2.3-14.2,3.8-21.5c0.4-1.7,0.5-3.4,0.4-5.2
			c-0.1-1.8,0.1-3.5,0.6-5.2c1.6,0.7,2.3,1.8,2.1,3.2s-0.3,2.9-0.3,4.3c0,1,0.1,1.7,0.2,2.2c0.1-0.5,0.3-1.1,0.5-2
			c0.2-0.8,0.4-1.7,0.6-2.6c0.2-0.9,0.4-1.7,0.5-2.5c0.2-0.8,0.4-1.3,0.6-1.5c0.1-0.1,0.4-0.2,0.7-0.2c0.5,0,0.8,0.2,1.1,0.7
			c0.2,0.5,0.5,0.9,0.7,1.3c1-1.6,2.3-2.5,4-2.9c1.7-0.4,3.3-0.7,4.9-1.1c2.8-0.6,5.5-1.2,8.4-1.7c2.8-0.5,5.6-1.1,8.4-1.7
			L298.7,58.2z M267.7,113.3c0.8-1.7,1.3-3.4,1.4-5.2c0.1-1.8,0.4-3.5,0.7-5.2c0.8-4,1.6-7.9,2.2-11.8c0.6-3.9,1.2-7.8,1.8-11.8
			c-0.2,0.7-0.5,1.5-0.6,2.3c-0.2,0.8-0.4,1.5-0.6,2.3c-1,4.9-1.8,9.8-2.6,14.7C269.2,103.3,268.5,108.2,267.7,113.3z"/>
		<path class="st2" d="M325.2,56.7c0.2,0,0.6,0.1,1.1,0.4c0.7,1,1.2,2.2,1.4,3.7c0.2,1.5,0.3,2.8,0.3,3.9c0,1-0.2,1.9-0.6,2.8
			c-0.4,0.9-1.2,1.2-2.4,1c-1.3,4.2-2.6,8.5-3.8,12.8c-1.2,4.3-2.1,8.8-2.7,13.3c-0.4,2.6-0.8,5.2-1.4,7.6c-0.6,2.5-1.1,5-1.6,7.5
			c-1.3,7.7-2.5,15.2-3.6,22.7c-1.1,7.4-1.6,15.1-1.6,22.9c0,2,0.2,3.8,0.5,5.2c0.4,1.4,0.8,2.8,1.3,4c0.5,1.2,1,2.4,1.5,3.7
			s1,2.8,1.5,4.6c1.9-1,3.4-2.4,4.3-4.3c1-1.9,1.9-3.7,2.9-5.4c2.2-4,3.9-8.1,5.1-12.5c1.3-4.4,2.5-8.8,3.7-13.2
			c2.5-9.5,4.6-19,6.4-28.7c1.7-9.7,3.9-19.2,6.6-28.7c0.4-1.3,0.8-2.5,1.4-3.6c0.6-1.1,1.1-2.2,1.4-3.4c0.4-1,0.6-2.1,0.6-3.3
			c0.1-1.3,0.7-2.1,2.1-2.4l1.1,2c-0.4-0.6-0.7-1.3-1-2.2c-0.3-0.8-0.5-1.7-0.5-2.5c0-1.3,0.7-2,2-2h0.4c1.1,0.6,1.8,1.4,2.2,2.5
			s0.5,2.2,0.5,3.2c0,2.6-0.4,5.6-1.3,8.8c-0.8,3.2-1.6,6.2-2.2,8.8c-2.2,10.4-4.2,20.8-6.1,31c-1.9,10.3-4.3,20.6-7,30.9
			c-1.2,4.6-2.7,9.1-4.4,13.6c-1.7,4.5-3.6,9-5.5,13.4c-0.7,1.7-1.8,3.3-3.2,4.9c-1.4,1.6-2.9,2.9-4.4,4c-1.2,1-2.3,1.4-3.2,1.4
			c-1,0-2.1,0-3.4,0c-1-0.5-1.8-1.1-2.4-2c-0.7-0.8-1.2-1.7-1.7-2.7c-1-1.9-2-3.8-3.1-5.7c-1.1-1.9-1.9-3.8-2.3-5.8
			c-0.6-2.9-1-5.8-1.1-8.7c-0.1-2.9-0.2-5.9-0.2-8.9c0-5.9,0.3-11.7,0.9-17.4c0.6-5.7,1.2-11.4,1.8-17.2c0.8-7.3,1.9-15,3.3-23.1
			c1.4-8.1,3.3-15.6,5.7-22.6c0.1-0.4,0.4-1.1,0.7-2.3c0.4-1.1,0.8-2.3,1.3-3.5c0.5-1.2,1-2.3,1.5-3.2c0.5-1,1-1.4,1.5-1.4
			c0.5,0,1,0.2,1.5,0.6c0.5,0.4,1,0.8,1.3,1c0.2-0.7,0.5-1.8,0.9-3.1C323.5,57.4,324.2,56.7,325.2,56.7z M317.4,175.4
			c0.6,0,1.1,0,1.4-0.1c0.4-0.1,0.7-0.4,1.1-1c0.7-1.3,1.4-2.6,2.2-3.9s1.4-2.5,2-3.9c-1.1,1.4-2.2,2.9-3.2,4.4
			C319.8,172.5,318.6,173.9,317.4,175.4z"/>
		<path class="st2" d="M405.3,53c0.6,0,1,0.2,1.3,0.7c0.2,0.5,0.4,1,0.5,1.6c0.1,0.6,0.1,1.2,0.1,1.9c-0.1,0.7-0.1,1.2-0.1,1.5
			c0.2-0.8,0.5-1.6,0.7-2.3c0.2-0.7,0.8-1.1,1.8-1.1c0.2,0.6,0.4,1.3,0.5,2.1c0.1,0.8,0.1,1.5,0.1,2.1c0,1.1,0.1,2.1,0.4,3.1
			c0.2,1,0.4,2.1,0.4,3.2c0,2-0.2,4-0.7,5.8c-0.5,1.8-0.8,3.7-1.1,5.8c-0.6,7.2-1.3,14.3-2,21.4c-0.7,7.1-1.4,14.2-2.2,21.4
			c-0.5,5-0.9,10-1.4,14.9c-0.4,4.9-0.9,9.9-1.5,14.9c-0.1,0.7-0.3,1.5-0.5,2.3c-0.2,0.8-0.7,1.4-1.5,1.6c0,0.6-0.2,0.9-0.7,0.9
			c-0.2,0-0.5-0.2-0.6-0.6c-0.2-0.4-0.3-0.7-0.3-1c0,1.1,0.1,2.2,0.4,3.3c0.2,1.1,0.4,2.3,0.4,3.3c0,0.7-0.1,1.4-0.2,2.2
			c-0.1,0.7-0.2,1.4-0.2,2.2c0,1.7,0,3.3,0,4.9c0,1.6-0.4,3.1-1.3,4.7c-0.6,1-0.9,1.8-0.9,2.4c0,0.7,0,1.5,0,2.6
			c0,1.3-0.2,2.4-0.5,3.2c-0.3,0.8-1.2,1.3-2.6,1.3c-0.7-1.7-1.1-3.4-1.3-5.1c-0.1-1.7-0.3-3.4-0.5-5.1c-0.2-2.6-0.7-5.2-1.4-7.7
			c-0.7-2.5-1.3-5.1-1.8-7.7c-0.4-2-0.8-4-1.3-5.9c-0.5-1.9-0.9-3.8-1.3-5.8c-1.7-9.8-3.3-19.4-4.9-28.6c-1.6-9.2-3.7-18.7-6.5-28.4
			c-0.2-1-0.5-1.9-0.8-3c-0.3-1-0.6-2-1-3c-0.6,7.2-1,14.3-1.2,21.4c-0.2,7.1-0.6,14.2-1.2,21.4c-0.6,6.7-1.1,13.4-1.6,20
			c-0.5,6.6-1,13.3-1.6,20c-0.2,3.1-0.4,6.4-0.5,9.7c-0.1,3.4-0.7,6.5-1.6,9.5c-0.2,0.6-0.5,1.1-0.7,1.4c-0.2,0.4-0.7,0.5-1.3,0.5
			c-0.5,0-0.8-0.1-0.9-0.2c-0.2-1-0.4-1.8-0.5-2.6c-0.1-0.8-0.2-1.6-0.3-2.6c-1.2,0.6-2.3,0.9-3.2,0.9c-0.1-1.3-0.2-2.6-0.1-4
			c0.1-1.3,0-2.6-0.1-4l-1.3-0.7c-0.7-2.3-1.1-4.7-1.1-7.4c0-0.8,0-1.7,0.1-2.5c0.1-0.8,0.1-1.7,0.3-2.5c0.6,1.1,0.9,2.2,0.9,3.4
			c0,1.2,0,2.4,0,3.6c0,0.2,0,0.5,0.1,0.9c0.1,0.4,0.1,0.7,0.1,0.9c-0.1-1-0.1-2,0-3.1c0.1-1.1,0.2-2.1,0.2-3.1c0-1-0.1-1.7-0.2-2.2
			l-0.9-0.7v-3.6h0.5c0.8,0,1.3,0.6,1.4,1.9c0.1,1.3,0.1,2.2,0.3,2.8l0.4-0.2c-0.1-0.6-0.2-1.5-0.2-2.7c0.6-0.4,0.9-0.9,0.9-1.6
			c0-0.5-0.1-1-0.2-1.4c-0.1-0.5-0.1-1,0-1.4c0,0.5,0,0.9-0.1,1.3c-0.1,0.4-0.2,0.8-0.3,1.3c-0.2,0.2-0.5,0.4-0.9,0.4
			c-0.5,0-0.9-0.2-1.3-0.5l1.3-1.8l-2,1.4c0.7-7.2,1.5-14.3,2.3-21.2c0.8-7,1.6-14,2.2-21.2c0.6-7.9,1.3-15.8,2.2-23.7
			c0.8-7.9,1.8-15.8,2.9-23.7c-0.2-0.7-0.4-1.3-0.4-1.6c0-1.2,0.5-2.2,1.4-3.1c0.9-0.8,1.8-1.4,2.8-1.6l1.6-1.8c1,1,1.8,1.9,2.5,2.8
			s1.6,1.8,2.5,2.8c0.4,1,0.7,2,1,3.1c0.3,1.1,0.6,2.1,0.8,3.1c0.4-0.4,0.7-0.8,1.1-1.4c0.4-0.6,0.8-0.8,1.4-0.7
			c1,1.3,1.5,2.7,1.7,4.2c0.2,1.5,0.5,3,0.8,4.4c0.5,1.7,1,3.4,1.5,5.1c0.5,1.7,0.8,3.5,0.8,5.1c0,1.3,0.1,2.6,0.5,3.8
			c0.3,1.2,0.6,2.5,0.8,3.8c1.1,6.4,2.1,12.7,3.2,18.9c1,6.2,2.5,12.4,4.6,18.5c0.2-1.3,0.4-2.7,0.5-4c0.1-1.4,0.2-2.7,0.4-4
			c-0.2,0-0.6,0-1.1-0.1c-0.5-0.1-0.7-0.3-0.7-0.6c0-0.2,0.2-0.5,0.5-0.9l1.3,0.4c0.7-6.2,1.4-12.5,2-18.7
			c0.6-6.2,1.4-12.5,2.3-18.7c0.6-4.2,1.3-8.3,2-12.3c0.7-4,1.3-8.1,1.6-12.3c0-0.4,0-1,0.1-1.8c0.1-0.8,0.2-1.7,0.4-2.6
			c0.2-0.9,0.4-1.7,0.6-2.4C404.4,53.3,404.8,53,405.3,53z"/>
		<path class="st2" d="M435,64.7c0.2-1,0.6-1.9,1.2-2.7c0.5-0.8,1.3-1.4,2.3-1.6c0.8,1.2,1.4,3,1.7,5.4c0.3,2.4,0.5,4.3,0.5,5.8
			c0,0.4,0,0.7-0.1,1c-0.1,0.3-0.1,0.6-0.1,1c-0.5,5.3-0.9,10.5-1.4,15.7c-0.4,5.2-1.1,10.3-1.9,15.5c-1.1,6.8-2.3,13.6-3.5,20.2
			c-1.3,6.6-2.5,13.3-3.7,20.2c-0.5,2.8-0.9,5.6-1.2,8.4c-0.3,2.8-0.8,5.6-1.3,8.4c-0.2,1.3-0.5,2.6-0.9,3.7
			c-0.4,1.1-0.7,2.3-0.9,3.5c-0.4,1.8-0.6,3.6-0.8,5.5c-0.2,1.9-0.6,3.6-1.3,5.3c-0.2,0.8-0.8,1.6-1.8,2.3l-1.4-1.6
			c-0.2,0.5-0.6,1.3-1.2,2.5s-1.1,1.8-1.7,1.8c-0.8,0-1.3-0.3-1.5-1c-0.2-0.7-0.3-1.3-0.3-1.9c0-2.4,0.1-4.8,0.2-7.1
			c0.1-2.3,0.4-4.7,0.9-7.1c1.1-6.5,2.1-12.8,3.1-19.1c1-6.2,2.1-12.6,3.2-19.1c0.4-2.2,0.7-4.3,1.2-6.5c0.4-2.2,0.7-4.3,1-6.5
			c0.2,0.6,0.4,1.2,0.4,1.7c0.1,0.5,0.1,1.1,0.3,1.7c0-0.4,0-0.7,0.1-0.9c0.1-0.2,0.1-0.5,0.1-0.9c0-0.7-0.2-1.3-0.5-1.6
			c0.7-5.4,1.6-10.7,2.5-15.8c1-5.2,1.9-10.4,2.7-15.8c0.2-1.8,0.5-3.6,0.7-5.5c0.2-1.9,0.5-3.7,0.7-5.5c0.1-1,0.1-1.9,0.1-2.8
			c-0.1-0.9,0-1.8,0.3-2.8c0.2-1,0.6-1.6,1-2.1C433.8,65.8,434.4,65.3,435,64.7z"/>
		<path class="st2" d="M463.8,59.8c2.9-1,5.7-1.4,8.5-1.4c2.6,0,5,0.4,7,1.3c1.2,0.5,2.6,1.4,4.1,2.9c1.6,1.4,3,3.1,4.4,4.9
			c1.4,1.8,2.5,3.6,3.5,5.4c1,1.8,1.4,3.4,1.4,4.7c0,1-0.4,1.7-1.2,2.2c-0.8,0.5-1.6,0.7-2.4,0.7c-0.7,0-1.3-0.3-1.8-0.8
			c-0.5-0.5-0.9-1-1.3-1.5l-2.3,1.1c-0.2-1.7-0.8-3.1-1.7-4.1c-0.9-1.1-1.8-2.3-2.8-3.6c-0.5-0.7-0.8-1.3-1.1-1.6
			c-0.2-0.4-0.5-0.6-0.6-0.8c-0.2-0.2-0.5-0.4-0.8-0.6c-0.4-0.2-0.9-0.6-1.6-1.1c-1,2-2.2,4-3.8,5.9c-1.6,1.9-2.3,4.1-2.3,6.5
			c0,0.6,0.1,1.6,0.4,3.1c0.3,1.4,0.7,3,1.2,4.6c0.5,1.6,0.9,3.2,1.3,4.8c0.4,1.6,0.7,2.7,1,3.4c1.4,5.5,3,10.8,4.6,15.9
			c1.6,5.1,3.1,10.2,4.5,15.3c1.4,5.1,2.5,10.3,3.3,15.6c0.8,5.3,1.3,10.9,1.3,16.7c0,1-0.4,2.3-1.3,4c-0.8,1.7-1.4,3.1-1.8,4.1
			c-1,2-1.7,3.8-2.3,5.3c-0.6,1.5-1.7,3.1-3.4,4.8c-1.4,1.4-3,2.9-4.7,4.2c-1.7,1.4-3.5,2.4-5.6,3c-4.2-0.5-8.1-1.6-11.6-3.3
			c-3.5-1.7-6.5-4.5-8.7-8.2c-1.4-2.4-3.1-4.6-5-6.6c-1.9-2-3.5-4.2-4.8-6.6l4.5-5.9c1,1.3,2.2,2.3,3.6,3c1.4,0.7,2.7,1.6,3.8,2.8
			c0.8,1,1.7,2.2,2.6,3.6c0.9,1.4,1.9,2.9,2.9,4.4c1,1.5,2.1,2.9,3.1,4.1c1.1,1.2,2.2,2,3.4,2.3c1.1,0.2,2.2,0.5,3.4,0.9
			c1.2,0.4,2.3,0.5,3.4,0.5c0.8,0,1.5-0.3,2.1-1c0.5-0.7,1-1.5,1.3-2.4c0.3-1,0.6-1.9,0.8-2.9c0.2-1,0.5-1.7,0.7-2.3
			c0.6-1.6,1.1-2.9,1.4-4.1c0.4-1.1,0.5-2.5,0.5-4.2c0-3.7-0.5-8.2-1.4-13.3c-0.9-5.2-2-10.5-3.4-15.9c-1.4-5.5-2.9-10.7-4.5-15.8
			c-1.6-5.1-3.1-9.5-4.4-13.1c-1.2-3.1-2.1-5.9-2.7-8.3c-0.6-2.4-0.9-5.3-0.9-8.6c0-4,0.2-8.1,0.7-12.4
			C459,66.6,460.8,62.9,463.8,59.8z"/>
		<path class="st2" d="M556.6,57.5c0.5,0.5,0.7,1,0.7,1.6c0,0.6,0.1,1.2,0.2,1.8l2.3-1.1c0.5,0.6,0.8,1.3,1.1,2
			c0.2,0.7,0.5,1.4,0.7,2.2c0.2-0.5,0.5-0.9,0.7-1.4c0.2-0.4,0.5-0.9,0.7-1.3c0.6-0.2,1.2-0.5,1.9-0.9c0.7-0.4,1.3-0.5,1.9-0.5
			c0.4,0,0.7,0.1,0.9,0.2c0.8,1.3,1.4,2.7,1.6,4.1c0.2,1.4,0.5,2.9,0.7,4.3c1.1,1.1,1.6,2.5,1.6,4.1c0,0.8-0.2,1.7-0.5,2.5
			c-0.5,1.3-0.7,2.7-0.6,4.1c0.1,1.4,0.1,2.9,0.1,4.3c0,1-0.1,1.8-0.2,2.6c-0.1,0.8-0.2,1.7-0.2,2.6c0,1,0,1.9,0.1,2.8
			c0.1,0.9,0.1,1.8,0.1,2.8c0,0.6,0,1.1-0.1,1.6c-0.1,0.5-0.1,1-0.1,1.6c-0.7,11.5-1.5,23-2.3,34.4c-0.8,11.4-1.9,22.9-3.1,34.4
			c-0.2,1.7-0.5,3.4-0.6,5.2c-0.2,1.8-0.8,3.5-1.7,5l-2.3-1.3c0,1.4-0.2,2.6-0.7,3.5c-0.5,0.9-1.3,1.8-2.3,2.8
			c-0.6-0.2-1.2-0.5-1.8-0.8c-0.6-0.3-1.2-0.6-1.8-0.8c-1,0.5-1.7,0.7-2.2,0.7c-1,0-1.4-0.4-1.4-1.1c0-1.9,0.4-3.7,1.2-5.5
			c0.8-1.7,1.3-3.6,1.5-5.5c0.4-3.1,0.6-6.2,0.8-9.4c0.2-3.1,0.4-6.2,0.6-9.4c0.2-2.3,0.5-4.5,0.6-6.8c0.2-2.2,0.4-4.5,0.6-6.8
			c0.6-7.9,1.1-15.8,1.4-23.8c0.4-7.9,0.8-15.8,1.3-23.8c0.1-2,0.2-4,0.4-6c0.1-2,0.4-4,0.9-6c-2.4,4.9-4.5,9.9-6.3,14.9
			s-3.7,10.1-5.8,15.1c-1.1,2.5-2.1,5.1-3.1,7.6c-1,2.6-1.9,5.1-2.9,7.6c-1.3,3.6-2.6,7.2-4,10.8c-1.3,3.6-2.5,7.3-3.4,11.2
			c0.4,0.6,0.5,1.1,0.5,1.6c0,0.8-0.3,1.7-0.9,2.6c-0.6,0.9-1.4,1.3-2.3,1.3c-0.4,0-0.8-0.1-1.3-0.4l1.3-1.4
			c-0.8,1.7-1.9,2.8-3.2,3.2c-0.4-0.7-0.7-1.7-0.9-3c-0.2-1.3-0.4-2.6-0.5-4c-0.1-1.4-0.3-2.8-0.5-4.2c-0.2-1.4-0.4-2.5-0.6-3.5
			c-0.6-2.2-1.1-4.3-1.4-6.5c-0.4-2.2-0.7-4.3-1.1-6.5c-1-5.5-1.9-11-2.7-16.4c-0.8-5.4-1.6-10.9-2.3-16.4
			c-1.1,4.6-1.8,9.2-2.3,13.8c-0.4,4.6-1.2,9.2-2.3,13.8c-0.1,0.6-0.6,0.8-1.4,0.5c0,0.5,0.1,0.9,0.3,1.3c0.2,0.4,0.3,0.9,0.3,1.5
			c0,0.7-0.4,1-1.1,0.7c0,0.1,0,0.2-0.1,0.2c-0.1,0-0.1,0.1-0.1,0.2v0.2c0,0.7,0.3,1.3,0.9,1.6c-0.1,2-0.4,4.1-0.9,6.2
			c-0.5,2.1-0.9,4.2-1.3,6.2c-1,5-1.9,10-2.8,14.9c-0.9,4.9-1.4,9.8-1.4,14.9c0,1.3-0.2,2.6-0.5,3.9c-0.3,1.3-0.4,2.6-0.4,3.9
			c0,1.7,0.2,3.1,0.7,4.1c-0.2,0.6-0.5,1.3-0.8,2.1c-0.3,0.8-0.9,1.1-1.9,1c-0.4-1.6-0.6-3.1-0.8-4.7c-0.2-1.6-0.4-3.2-0.6-4.9
			c-0.5,1-1.1,1.9-1.7,2.7c-0.7,0.8-1.5,1.6-2.4,2.2c-0.1-1.3-0.3-2.6-0.5-3.8c-0.2-1.2-0.3-2.5-0.3-3.8c0-1.1,0.2-2.3,0.5-3.6
			c0.2-1,0.4-1.9,0.5-2.9c0.1-1,0.1-1.9,0.1-2.9c0-2.3,0.2-4.8,0.6-7.5c0.4-2.7,0.9-5.4,1.4-8.2c0.5-2.8,1.1-5.5,1.8-8.2
			c0.7-2.7,1.2-5.2,1.5-7.6c1.8-10.6,3.4-21.1,4.8-31.5c1.4-10.4,3.4-20.9,6-31.3c0.2-1.2,0.6-2.4,1.1-3.6c0.5-1.2,1.3-2.1,2.3-2.7
			c0.2,0.4,0.5,0.8,0.7,1.2c0.2,0.4,0.5,0.8,0.7,1.2c1-0.4,1.8-0.6,2.4-0.8c0.7-0.2,1.5-0.3,2.4-0.3c0,0.8,0,1.7-0.1,2.4
			c-0.1,0.8-0.1,1.6-0.1,2.4c0,1.7,0.2,3.2,0.7,4.7c0.6,1.8,0.9,3.6,0.9,5.4c0,1.8,0.1,3.6,0.4,5.4c0.1,0.7,0.2,1.4,0.4,2.1
			c0.1,0.7,0.3,1.3,0.5,1.9c0.5,2,0.8,4,1,6c0.2,2,0.4,4,0.6,6c0.6,4.4,1.1,8.9,1.5,13.2c0.4,4.4,0.7,8.9,1,13.4
			c2.6-7.4,5.2-14.9,7.6-22.2c2.4-7.4,5-14.8,7.7-22.2c0.5-1.4,1-3.1,1.7-5c0.7-1.9,1.4-3.7,2.1-5.6c0.7-1.9,1.5-3.7,2.3-5.4
			c0.8-1.7,1.7-3.2,2.5-4.4C555.2,57.9,555.9,57.5,556.6,57.5z M565.6,115.2c-1,9.7-2,19.3-3.1,28.9c-1.1,9.5-1.7,19.2-1.7,28.9
			c0,1,0.3,1.9,0.9,2.7c-0.1-0.6-0.2-1.4-0.2-2.5c0-3,0.1-6,0.5-9c0.3-3,0.6-6,0.8-9c0.1-1.4,0.2-2.8,0.3-4.2
			c0.1-1.4,0.1-2.8,0.3-4.2c0.1-1.7,0.3-3.4,0.5-5.1c0.2-1.7,0.4-3.4,0.6-5.1c0.4-3.5,0.7-7,1-10.6c0.3-3.6,0.6-7.1,0.8-10.6H565.6z
			"/>
	</g>
</g>
</svg>
